<mxfile host="app.diagrams.net" modified="2020-05-31T13:15:27.484Z" agent="5.0 (Windows NT 10.0; Win64; x64) AppleWebKit/537.36 (KHTML, like Gecko) Chrome/83.0.4103.61 Safari/537.36" etag="tqjxPdSrSp2aDmUpdpQj" version="13.1.11" type="github">
  <diagram id="k1IZCnCZjMCAsr3r2bsj" name="Page-1">
    <mxGraphModel dx="1038" dy="556" grid="1" gridSize="10" guides="1" tooltips="1" connect="1" arrows="1" fold="1" page="1" pageScale="1" pageWidth="827" pageHeight="1169" math="0" shadow="0">
      <root>
        <mxCell id="0" />
        <mxCell id="1" parent="0" />
        <mxCell id="gdeIAcKyOvS8LISmcvML-7" style="edgeStyle=orthogonalEdgeStyle;rounded=0;orthogonalLoop=1;jettySize=auto;html=1;entryX=0;entryY=0.5;entryDx=0;entryDy=0;" parent="1" target="gdeIAcKyOvS8LISmcvML-3" edge="1">
          <mxGeometry relative="1" as="geometry">
            <mxPoint x="160" y="290" as="sourcePoint" />
          </mxGeometry>
        </mxCell>
        <mxCell id="gdeIAcKyOvS8LISmcvML-6" style="edgeStyle=orthogonalEdgeStyle;rounded=0;orthogonalLoop=1;jettySize=auto;html=1;exitX=1;exitY=0.5;exitDx=0;exitDy=0;entryX=0;entryY=0.5;entryDx=0;entryDy=0;" parent="1" source="gdeIAcKyOvS8LISmcvML-3" target="5BWeS_tCnwVqCxFv6N7e-6" edge="1">
          <mxGeometry relative="1" as="geometry">
            <Array as="points" />
            <mxPoint x="360" y="290" as="targetPoint" />
          </mxGeometry>
        </mxCell>
        <mxCell id="gdeIAcKyOvS8LISmcvML-24" value="e(t)" style="edgeLabel;html=1;align=center;verticalAlign=middle;resizable=0;points=[];" parent="gdeIAcKyOvS8LISmcvML-6" vertex="1" connectable="0">
          <mxGeometry x="0.2879" y="-1" relative="1" as="geometry">
            <mxPoint x="14" y="-1" as="offset" />
          </mxGeometry>
        </mxCell>
        <mxCell id="gdeIAcKyOvS8LISmcvML-12" style="edgeStyle=orthogonalEdgeStyle;rounded=0;orthogonalLoop=1;jettySize=auto;html=1;entryX=0;entryY=0.25;entryDx=0;entryDy=0;" parent="1" edge="1">
          <mxGeometry relative="1" as="geometry">
            <mxPoint x="280" y="290" as="sourcePoint" />
            <Array as="points">
              <mxPoint x="280" y="280" />
              <mxPoint x="280" y="185" />
            </Array>
            <mxPoint x="380" y="155" as="targetPoint" />
          </mxGeometry>
        </mxCell>
        <mxCell id="gdeIAcKyOvS8LISmcvML-13" style="edgeStyle=orthogonalEdgeStyle;rounded=0;orthogonalLoop=1;jettySize=auto;html=1;entryX=0;entryY=0.75;entryDx=0;entryDy=0;" parent="1" edge="1">
          <mxGeometry relative="1" as="geometry">
            <mxPoint x="310" y="290" as="sourcePoint" />
            <Array as="points">
              <mxPoint x="310" y="280" />
              <mxPoint x="310" y="215" />
            </Array>
            <mxPoint x="380" y="185" as="targetPoint" />
          </mxGeometry>
        </mxCell>
        <mxCell id="gdeIAcKyOvS8LISmcvML-3" value="" style="ellipse;whiteSpace=wrap;html=1;aspect=fixed;" parent="1" vertex="1">
          <mxGeometry x="230" y="280" width="20" height="20" as="geometry" />
        </mxCell>
        <mxCell id="gdeIAcKyOvS8LISmcvML-9" style="edgeStyle=orthogonalEdgeStyle;rounded=0;orthogonalLoop=1;jettySize=auto;html=1;exitX=0.5;exitY=1;exitDx=0;exitDy=0;entryX=0.5;entryY=0;entryDx=0;entryDy=0;" parent="1" edge="1">
          <mxGeometry relative="1" as="geometry">
            <mxPoint x="440" y="200" as="sourcePoint" />
            <mxPoint x="440" y="260" as="targetPoint" />
          </mxGeometry>
        </mxCell>
        <mxCell id="gdeIAcKyOvS8LISmcvML-10" style="edgeStyle=orthogonalEdgeStyle;rounded=0;orthogonalLoop=1;jettySize=auto;html=1;exitX=0.75;exitY=1;exitDx=0;exitDy=0;entryX=0.75;entryY=0;entryDx=0;entryDy=0;" parent="1" edge="1">
          <mxGeometry relative="1" as="geometry">
            <mxPoint x="480" y="200" as="sourcePoint" />
            <mxPoint x="480" y="260" as="targetPoint" />
          </mxGeometry>
        </mxCell>
        <mxCell id="gdeIAcKyOvS8LISmcvML-16" value="E" style="text;html=1;align=center;verticalAlign=middle;resizable=0;points=[];autosize=1;" parent="1" vertex="1">
          <mxGeometry x="325" y="130" width="20" height="20" as="geometry" />
        </mxCell>
        <mxCell id="gdeIAcKyOvS8LISmcvML-18" value="dE/dt" style="text;html=1;align=center;verticalAlign=middle;resizable=0;points=[];autosize=1;" parent="1" vertex="1">
          <mxGeometry x="305" y="160" width="40" height="20" as="geometry" />
        </mxCell>
        <mxCell id="gdeIAcKyOvS8LISmcvML-8" style="edgeStyle=orthogonalEdgeStyle;rounded=0;orthogonalLoop=1;jettySize=auto;html=1;exitX=0.25;exitY=1;exitDx=0;exitDy=0;entryX=0.25;entryY=0;entryDx=0;entryDy=0;" parent="1" edge="1">
          <mxGeometry relative="1" as="geometry">
            <Array as="points">
              <mxPoint x="400" y="230" />
              <mxPoint x="400" y="230" />
            </Array>
            <mxPoint x="400" y="200" as="sourcePoint" />
            <mxPoint x="400" y="260" as="targetPoint" />
          </mxGeometry>
        </mxCell>
        <mxCell id="gdeIAcKyOvS8LISmcvML-25" value="y(t)" style="text;html=1;align=center;verticalAlign=middle;resizable=0;points=[];autosize=1;" parent="1" vertex="1">
          <mxGeometry x="670" y="270" width="30" height="20" as="geometry" />
        </mxCell>
        <mxCell id="gdeIAcKyOvS8LISmcvML-26" value="r(t)" style="text;html=1;align=center;verticalAlign=middle;resizable=0;points=[];autosize=1;" parent="1" vertex="1">
          <mxGeometry x="160" y="270" width="30" height="20" as="geometry" />
        </mxCell>
        <mxCell id="5BWeS_tCnwVqCxFv6N7e-1" value="dKP" style="text;html=1;align=center;verticalAlign=middle;resizable=0;points=[];autosize=1;" vertex="1" parent="1">
          <mxGeometry x="360" y="220" width="40" height="20" as="geometry" />
        </mxCell>
        <mxCell id="5BWeS_tCnwVqCxFv6N7e-3" value="dKI" style="text;html=1;align=center;verticalAlign=middle;resizable=0;points=[];autosize=1;" vertex="1" parent="1">
          <mxGeometry x="410" y="220" width="30" height="20" as="geometry" />
        </mxCell>
        <mxCell id="5BWeS_tCnwVqCxFv6N7e-4" value="dKD" style="text;html=1;align=center;verticalAlign=middle;resizable=0;points=[];autosize=1;" vertex="1" parent="1">
          <mxGeometry x="440" y="220" width="40" height="20" as="geometry" />
        </mxCell>
        <mxCell id="5BWeS_tCnwVqCxFv6N7e-9" style="edgeStyle=orthogonalEdgeStyle;rounded=0;orthogonalLoop=1;jettySize=auto;html=1;exitX=1;exitY=0.5;exitDx=0;exitDy=0;" edge="1" parent="1" source="5BWeS_tCnwVqCxFv6N7e-5">
          <mxGeometry relative="1" as="geometry">
            <mxPoint x="730" y="290" as="targetPoint" />
          </mxGeometry>
        </mxCell>
        <mxCell id="5BWeS_tCnwVqCxFv6N7e-10" style="edgeStyle=orthogonalEdgeStyle;rounded=0;orthogonalLoop=1;jettySize=auto;html=1;entryX=0.5;entryY=1;entryDx=0;entryDy=0;" edge="1" parent="1" target="gdeIAcKyOvS8LISmcvML-3">
          <mxGeometry relative="1" as="geometry">
            <mxPoint x="670" y="290" as="sourcePoint" />
            <Array as="points">
              <mxPoint x="670" y="370" />
              <mxPoint x="240" y="370" />
            </Array>
          </mxGeometry>
        </mxCell>
        <mxCell id="5BWeS_tCnwVqCxFv6N7e-5" value="G(S)" style="rounded=1;whiteSpace=wrap;html=1;" vertex="1" parent="1">
          <mxGeometry x="540" y="260" width="110" height="60" as="geometry" />
        </mxCell>
        <mxCell id="5BWeS_tCnwVqCxFv6N7e-8" style="edgeStyle=orthogonalEdgeStyle;rounded=0;orthogonalLoop=1;jettySize=auto;html=1;exitX=1;exitY=0.5;exitDx=0;exitDy=0;entryX=0;entryY=0.5;entryDx=0;entryDy=0;" edge="1" parent="1" source="5BWeS_tCnwVqCxFv6N7e-6" target="5BWeS_tCnwVqCxFv6N7e-5">
          <mxGeometry relative="1" as="geometry" />
        </mxCell>
        <mxCell id="5BWeS_tCnwVqCxFv6N7e-6" value="PID" style="rounded=1;whiteSpace=wrap;html=1;" vertex="1" parent="1">
          <mxGeometry x="370" y="260" width="140" height="60" as="geometry" />
        </mxCell>
        <mxCell id="5BWeS_tCnwVqCxFv6N7e-7" value="FUZZY" style="rounded=1;whiteSpace=wrap;html=1;" vertex="1" parent="1">
          <mxGeometry x="380" y="140" width="120" height="60" as="geometry" />
        </mxCell>
      </root>
    </mxGraphModel>
  </diagram>
</mxfile>
